<svg width="17" height="17" viewBox="0 0 17 17" fill="none" xmlns="http://www.w3.org/2000/svg">
<path d="M9.09148 0.0195914C6.63074 -0.146876 4.2217 0.753466 2.48417 2.49323C0.746632 4.23299 -0.150116 6.64217 0.0205921 9.10448C0.332258 13.6055 4.30741 17 9.26715 17H13.4583C15.4112 17 17 15.4111 17 13.4581V8.74037C16.9993 4.15153 13.5256 0.32065 9.09148 0.0195914ZM4.95766 9.56208C4.37116 9.56208 3.89516 9.08606 3.89516 8.49952C3.89516 7.91299 4.37116 7.43696 4.95766 7.43696C5.54416 7.43696 6.02016 7.91299 6.02016 8.49952C6.02016 9.08606 5.54416 9.56208 4.95766 9.56208ZM8.49932 9.56208C7.91282 9.56208 7.43682 9.08606 7.43682 8.49952C7.43682 7.91299 7.91282 7.43696 8.49932 7.43696C9.08582 7.43696 9.56181 7.91299 9.56181 8.49952C9.56181 9.08606 9.08582 9.56208 8.49932 9.56208ZM12.041 9.56208C11.4545 9.56208 10.9785 9.08606 10.9785 8.49952C10.9785 7.91299 11.4545 7.43696 12.041 7.43696C12.6275 7.43696 13.1035 7.91299 13.1035 8.49952C13.1035 9.08606 12.6275 9.56208 12.041 9.56208Z" fill="#B6B6B6"/>
</svg>
