<svg width="44" height="44" viewBox="0 0 44 44" fill="none" xmlns="http://www.w3.org/2000/svg">
<path d="M22 1C10.4202 1 1 10.4202 1 22C1 33.5798 10.4202 43 22 43C33.5798 43 43 33.5798 43 22C43 10.4202 33.5798 1 22 1ZM13.25 39.1448V37.75C13.25 32.9253 17.1753 29 22 29C26.8247 29 30.75 32.9253 30.75 37.75V39.1448C28.1232 40.4905 25.1483 41.25 22 41.25C18.8517 41.25 15.8767 40.4905 13.25 39.1448ZM32.5 38.1263V37.75C32.5 31.9592 27.7908 27.25 22 27.25C16.2092 27.25 11.5 31.9592 11.5 37.75V38.1263C6.236 34.6875 2.75 28.7428 2.75 22C2.75 11.3862 11.3862 2.75 22 2.75C32.6138 2.75 41.25 11.3862 41.25 22C41.25 28.7428 37.764 34.6875 32.5 38.1263ZM22 9.75C18.1395 9.75 15 12.8895 15 16.75C15 20.6105 18.1395 23.75 22 23.75C25.8605 23.75 29 20.6105 29 16.75C29 12.8895 25.8605 9.75 22 9.75ZM22 22C19.1055 22 16.75 19.6445 16.75 16.75C16.75 13.8555 19.1055 11.5 22 11.5C24.8945 11.5 27.25 13.8555 27.25 16.75C27.25 19.6445 24.8945 22 22 22Z" fill="white" stroke="white"/>
</svg>
