<svg width="17" height="17" viewBox="0 0 17 17" fill="none" xmlns="http://www.w3.org/2000/svg">
<path d="M15.8055 6.02571C15.4801 5.57932 15.0778 5.22137 14.626 4.97609C14.1742 4.73082 13.6835 4.60395 13.1869 4.60408H10.4184L10.6516 2.91811C10.7341 2.3244 10.6345 1.71517 10.3711 1.20154C10.1076 0.687903 9.69785 0.304095 9.21645 0.120117C8.73505 -0.0638614 8.21412 -0.0357509 7.74868 0.199321C7.28325 0.434393 6.90431 0.860763 6.68099 1.40066L5.55249 4.12249V16.9948H12.7011C13.5363 16.9907 14.3426 16.6299 14.9732 15.9781C15.6038 15.3262 16.0169 14.4265 16.1372 13.4428L16.6265 9.31255C16.6957 8.72666 16.6582 8.1299 16.5165 7.56278C16.3749 6.99566 16.1324 6.47145 15.8055 6.02571Z" fill="#B6B6B6"/>
<path d="M0 8.73388V12.8641C0.00110203 13.9591 0.367063 15.0089 1.01761 15.7832C1.66816 16.5575 2.55017 16.993 3.47018 16.9944H4.16422V4.60364H3.47018C2.55017 4.60495 1.66816 5.04052 1.01761 5.81481C0.367063 6.58909 0.00110203 7.63887 0 8.73388Z" fill="#B6B6B6"/>
</svg>
