<svg width="25" height="25" viewBox="0 0 25 25" fill="none" xmlns="http://www.w3.org/2000/svg">
<g clip-path="url(#clip0_1_118)">
<path d="M13.3708 0.030152C9.75205 -0.21464 6.20934 1.10932 3.65413 3.66765C1.09892 6.22599 -0.219828 9.76869 0.0312134 13.3895C0.489547 20.0083 6.33538 24.9999 13.6291 24.9999H19.7927C22.6645 24.9999 25.001 22.6635 25.001 19.7916V12.8541C25 6.10619 19.8916 0.47286 13.3708 0.030152ZM7.29163 14.0624C6.42913 14.0624 5.72913 13.3624 5.72913 12.4999C5.72913 11.6374 6.42913 10.9374 7.29163 10.9374C8.15413 10.9374 8.85413 11.6374 8.85413 12.4999C8.85413 13.3624 8.15413 14.0624 7.29163 14.0624ZM12.5 14.0624C11.6375 14.0624 10.9375 13.3624 10.9375 12.4999C10.9375 11.6374 11.6375 10.9374 12.5 10.9374C13.3625 10.9374 14.0625 11.6374 14.0625 12.4999C14.0625 13.3624 13.3625 14.0624 12.5 14.0624ZM17.7083 14.0624C16.8458 14.0624 16.1458 13.3624 16.1458 12.4999C16.1458 11.6374 16.8458 10.9374 17.7083 10.9374C18.5708 10.9374 19.2708 11.6374 19.2708 12.4999C19.2708 13.3624 18.5708 14.0624 17.7083 14.0624Z" fill="#B6B6B6"/>
</g>
<defs>
<clipPath id="clip0_1_118">
<rect width="25" height="25" fill="white"/>
</clipPath>
</defs>
</svg>
