<svg width="28" height="32" viewBox="0 0 28 32" fill="none" xmlns="http://www.w3.org/2000/svg">
<g filter="url(#filter0_dd_1_97)">
<path d="M23 24.4999V26.9999H5.00004V24.4999C5.00004 22.1049 6.88504 20.1599 9.24704 20.0259L12 24.4999L14 21.4999L16 24.4999L18.753 20.0259C21.115 20.1599 23 22.1059 23 24.4999ZM8.87204 7.02691C10.401 5.59391 12.403 4.88591 14.502 5.01591C18.426 5.26991 21.501 8.68491 21.501 12.7899C21.501 14.5599 20.062 15.9989 18.292 15.9989H15.886C15.642 15.1699 14.884 14.5599 13.976 14.5599C12.871 14.5599 11.976 15.4549 11.976 16.5599C11.976 17.6649 12.871 18.5599 13.976 18.5599C14.514 18.5599 15.001 18.3449 15.36 17.9989H18.292C21.164 17.9989 23.501 15.6619 23.501 12.7899C23.5 7.63391 19.604 3.34191 14.63 3.02091C11.966 2.84791 9.43904 3.75291 7.50404 5.56891C5.71704 7.24391 4.64304 9.56491 4.51404 12.0009H6.51704C6.64004 10.0979 7.46504 8.34591 8.87204 7.02691ZM17.109 14.0109C17.132 14.0059 17.162 13.9999 17.162 13.9999H18.468C18.969 13.9999 19.407 13.6319 19.465 13.1339C19.533 12.5469 19.508 11.9319 19.374 11.3029C18.93 9.22391 17.243 7.54691 15.161 7.11891C11.624 6.39191 8.50204 9.08891 8.50204 12.4999C8.50204 13.9689 9.08104 15.3049 10.022 16.2919C10.133 14.1819 11.863 12.4999 14.001 12.4999C15.264 12.4999 16.376 13.0969 17.109 14.0109Z" fill="#EB6C97"/>
</g>
<defs>
<filter id="filter0_dd_1_97" x="0.514038" y="0" width="26.9869" height="32" filterUnits="userSpaceOnUse" color-interpolation-filters="sRGB">
<feFlood flood-opacity="0" result="BackgroundImageFix"/>
<feColorMatrix in="SourceAlpha" type="matrix" values="0 0 0 0 0 0 0 0 0 0 0 0 0 0 0 0 0 0 127 0" result="hardAlpha"/>
<feMorphology radius="1" operator="dilate" in="SourceAlpha" result="effect1_dropShadow_1_97"/>
<feOffset dy="1"/>
<feGaussianBlur stdDeviation="1.5"/>
<feColorMatrix type="matrix" values="0 0 0 0 0 0 0 0 0 0 0 0 0 0 0 0 0 0 0.15 0"/>
<feBlend mode="normal" in2="BackgroundImageFix" result="effect1_dropShadow_1_97"/>
<feColorMatrix in="SourceAlpha" type="matrix" values="0 0 0 0 0 0 0 0 0 0 0 0 0 0 0 0 0 0 127 0" result="hardAlpha"/>
<feOffset dy="1"/>
<feGaussianBlur stdDeviation="1"/>
<feColorMatrix type="matrix" values="0 0 0 0 0 0 0 0 0 0 0 0 0 0 0 0 0 0 0.3 0"/>
<feBlend mode="normal" in2="effect1_dropShadow_1_97" result="effect2_dropShadow_1_97"/>
<feBlend mode="normal" in="SourceGraphic" in2="effect2_dropShadow_1_97" result="shape"/>
</filter>
</defs>
</svg>
